<svg width="20" height="20" viewBox="0 0 20 20" fill="none" xmlns="http://www.w3.org/2000/svg">
  <path d="M19 4.74C18.339 5.029 17.626 5.229 16.881 5.32C17.644 4.86 18.227 4.139 18.503 3.28C17.79 3.7 16.999 4.009 16.158 4.17C15.485 3.45 14.526 3 13.462 3C11.423 3 9.769 4.654 9.769 6.693C9.769 6.978 9.804 7.254 9.871 7.518C6.795 7.37 4.076 5.901 2.254 3.67C1.936 4.229 1.754 4.86 1.754 5.538C1.754 6.818 2.405 7.953 3.397 8.615C2.798 8.595 2.239 8.434 1.754 8.166V8.211C1.754 9.998 3.025 11.486 4.728 11.821C4.419 11.906 4.092 11.951 3.754 11.951C3.516 11.951 3.286 11.928 3.063 11.886C3.529 13.349 4.888 14.419 6.502 14.449C5.24 15.433 3.651 16.019 1.927 16.019C1.627 16.019 1.332 16.002 1.043 15.969C2.676 17.023 4.647 17.641 6.774 17.641C13.454 17.641 17.17 12.013 17.17 7.109C17.17 6.953 17.166 6.798 17.158 6.644C17.879 6.123 18.504 5.47 19 4.74Z" fill="currentColor"/>
</svg> 