<svg width="40" height="40" viewBox="0 0 40 40" fill="none" xmlns="http://www.w3.org/2000/svg">
  <path d="M20 4C12 4 8 12 8 20C8 28 12 36 20 36C28 36 32 28 32 20C32 12 28 4 20 4Z" stroke="currentColor" stroke-width="2" fill="none"/>
  <path d="M12 16C16 12 24 12 28 16" stroke="currentColor" stroke-width="2" stroke-linecap="round"/>
  <path d="M12 24C16 28 24 28 28 24" stroke="currentColor" stroke-width="2" stroke-linecap="round"/>
  <circle cx="16" cy="18" r="2" fill="currentColor"/>
  <circle cx="24" cy="18" r="2" fill="currentColor"/>
  <path d="M14 26C16 28 20 28 22 28C24 28 26 28 28 26" stroke="currentColor" stroke-width="2" stroke-linecap="round"/>
</svg> 