<svg width="960" height="540" viewBox="0 0 960 540" xmlns="http://www.w3.org/2000/svg" role="img" aria-label="パウダースノー">
  <defs>
    <linearGradient id="g" x1="0" y1="0" x2="1" y2="1">
      <stop offset="0%" stop-color="#00d4ff"/>
      <stop offset="100%" stop-color="#ff6b35"/>
    </linearGradient>
  </defs>
  <rect width="960" height="540" rx="24" fill="#e6f7ff"/>
  <g transform="translate(0,380)" fill="#ffffff">
    <path d="M0 80h960v80H0z" opacity="0.9"/>
    <path d="M0 60c80-40 160-40 240 0s160 40 240 0 160-40 240 0 160 40 240 0v100H0z"/>
  </g>
  <g transform="translate(140,200)">
    <path d="M0 120c40-60 120-120 220-120s180 60 220 120" fill="none" stroke="url(#g)" stroke-width="14" stroke-linecap="round"/>
    <circle cx="180" cy="120" r="10" fill="#00d4ff"/>
    <circle cx="360" cy="120" r="10" fill="#ff6b35"/>
  </g>
  <text x="48" y="80" fill="#0f172a" font-size="22" font-weight="800" font-family="'Hiragino Sans','Meiryo',sans-serif">パウダースノー</text>
</svg>

